<?xml version="1.0" standalone="no"?>
<!DOCTYPE svg PUBLIC "-//W3C//DTD SVG 20010904//EN"
 "http://www.w3.org/TR/2001/REC-SVG-20010904/DTD/svg10.dtd">
<svg version="1.0" xmlns="http://www.w3.org/2000/svg"
 width="682.000000pt" height="682.000000pt" viewBox="0 0 682.000000 682.000000"
 preserveAspectRatio="xMidYMid meet">
<metadata>
Created by potrace 1.11, written by Peter Selinger 2001-2013
</metadata>
<g transform="translate(0.000000,682.000000) scale(0.100000,-0.100000)"
fill="#000000" stroke="none">
<path d="M2214 5595 c-54 -15 -129 -52 -181 -91 -52 -39 -150 -144 -190 -203
-21 -31 -41 -57 -45 -59 -5 -2 -8 -10 -8 -17 0 -7 -3 -15 -7 -17 -16 -6 -179
-328 -221 -433 -8 -22 -18 -42 -21 -45 -4 -3 -17 -32 -30 -65 -14 -33 -39 -91
-57 -130 -72 -158 -94 -207 -94 -210 0 -2 -17 -41 -39 -87 -65 -139 -79 -173
-79 -182 0 -5 -4 -12 -9 -15 -5 -3 -17 -26 -28 -51 -19 -46 -340 -684 -412
-820 -22 -41 -72 -136 -111 -210 -39 -74 -82 -155 -96 -180 -13 -25 -38 -70
-54 -100 -16 -30 -44 -82 -62 -115 -19 -33 -38 -69 -44 -80 -6 -11 -19 -31
-27 -45 -59 -90 -209 -413 -209 -448 0 -10 -4 -22 -9 -27 -22 -23 -34 -176
-17 -215 46 -105 173 -119 299 -33 66 45 237 220 237 243 0 6 4 10 8 10 5 0
30 43 57 96 27 52 52 97 56 100 4 2 13 21 20 42 6 20 15 39 18 42 3 3 65 122
136 265 72 143 132 262 135 265 3 3 29 53 58 113 29 59 54 107 55 107 1 0 2
-24 1 -52 -2 -129 40 -195 192 -300 93 -65 176 -113 339 -198 243 -126 358
-195 378 -228 4 -6 12 -12 18 -12 5 0 36 -21 67 -47 73 -60 119 -98 202 -162
36 -28 70 -54 75 -59 37 -29 140 -94 193 -121 141 -71 280 -79 404 -22 132 60
335 281 354 384 1 4 2 8 4 10 17 21 17 129 0 198 -16 62 -117 280 -132 287 -5
2 -8 9 -8 15 0 6 11 1 23 -11 52 -49 127 -46 226 9 l53 30 -6 -63 c-3 -35 -10
-85 -15 -113 -19 -103 -25 -184 -26 -335 0 -151 1 -156 27 -202 34 -56 92 -88
153 -83 22 2 40 4 40 5 0 1 7 3 16 5 41 8 121 66 199 145 94 95 120 125 120
140 0 6 4 10 8 10 10 0 37 50 34 63 -1 4 2 7 7 7 10 0 85 172 96 220 3 15 28
98 36 120 5 14 11 36 14 50 2 14 11 55 19 91 8 36 17 77 20 90 3 13 8 35 11
49 3 14 7 39 10 55 2 17 7 41 10 55 8 37 15 104 20 200 8 160 25 239 62 297
37 59 215 220 428 388 21 17 45 37 54 45 9 8 47 39 85 68 37 30 75 60 85 68 9
7 70 57 136 110 66 53 122 100 123 105 2 5 10 9 17 9 7 0 15 3 17 8 2 4 59 55
128 112 169 142 161 135 311 270 139 126 315 311 325 343 3 9 9 17 13 17 11 0
83 146 88 178 2 15 5 36 5 47 3 30 -12 85 -23 85 -5 0 -9 7 -9 15 0 16 -66 57
-130 80 -89 32 -141 36 -453 40 -147 1 -270 5 -274 8 -3 4 -13 2 -23 -3 -10
-5 -20 -7 -22 -4 -3 2 -99 7 -214 10 -254 6 -409 12 -409 14 0 1 -31 4 -70 5
-38 2 -106 7 -150 10 -255 19 -462 9 -565 -30 -25 -9 -53 -19 -62 -22 -10 -3
-18 -9 -18 -14 0 -5 -4 -8 -8 -6 -14 4 -96 -65 -133 -112 -35 -46 -72 -122
-85 -177 -12 -53 -12 -268 1 -354 18 -123 32 -203 40 -230 2 -8 7 -31 10 -50
3 -19 8 -42 10 -50 2 -8 7 -37 11 -65 3 -27 8 -53 10 -56 22 -37 22 -680 0
-718 -2 -3 -7 -31 -10 -60 -10 -80 -33 -152 -66 -204 -27 -43 -145 -196 -159
-207 -4 -3 -28 -34 -55 -70 -54 -72 -110 -183 -124 -247 -10 -45 -9 -124 2
-158 12 -39 -94 182 -140 290 -25 61 -52 124 -60 140 -7 17 -25 62 -40 100
-14 39 -44 117 -66 175 -21 58 -66 186 -100 285 -33 99 -62 187 -65 195 -3 8
-7 20 -9 25 -17 62 -56 193 -61 205 -3 8 -7 22 -9 30 -3 17 -23 86 -32 110 -3
8 -5 18 -4 22 1 4 -3 19 -8 33 -5 14 -12 36 -14 48 -2 12 -9 40 -14 62 -6 22
-14 54 -17 70 -8 39 -13 60 -15 60 -1 0 -3 9 -4 20 -2 11 -11 52 -20 90 -10
39 -20 81 -22 95 -3 14 -7 31 -10 39 -2 8 -7 30 -10 50 -3 20 -9 50 -14 66 -4
17 -12 48 -16 70 -4 22 -9 47 -11 55 -2 8 -5 26 -8 40 -17 99 -46 235 -55 265
-6 17 -17 53 -26 80 -44 139 -127 187 -260 150z m2301 -779 c28 -3 84 -8 125
-11 41 -3 98 -7 125 -10 61 -6 135 -12 235 -21 41 -3 89 -7 105 -9 17 -2 41
-3 53 -4 22 -1 21 -3 -15 -33 -21 -18 -45 -39 -53 -46 -44 -38 -71 -60 -108
-90 -23 -18 -54 -45 -71 -60 -16 -15 -56 -49 -87 -77 -32 -27 -73 -65 -92 -82
-18 -18 -35 -33 -37 -33 -3 0 -80 -71 -176 -161 -32 -31 -59 -51 -60 -45 0 6
-2 20 -5 31 -2 11 -5 66 -6 122 -2 57 -5 103 -8 103 -3 0 -7 28 -9 63 -7 129
-9 152 -11 152 -1 0 -3 23 -5 50 -1 28 -6 78 -9 113 l-7 63 33 -5 c18 -3 56
-7 83 -10z m-2576 -706 c11 -52 39 -169 61 -260 23 -91 43 -172 45 -180 2 -8
11 -42 20 -75 27 -98 72 -280 70 -283 -3 -3 -125 50 -155 67 -64 35 -255 54
-327 32 -2 -1 -4 0 -5 1 -2 1 -37 -16 -78 -38 -46 -24 -102 -65 -147 -109 -40
-39 -73 -70 -73 -68 0 9 115 209 122 211 4 2 8 12 8 22 0 9 7 23 15 30 8 7 15
18 15 26 0 7 6 19 13 26 6 7 22 33 35 58 12 25 36 70 53 100 17 30 52 93 77
140 25 47 70 132 101 190 31 58 70 131 86 162 16 32 32 55 36 50 4 -4 16 -50
28 -102z"/>
</g>
</svg>
